<?xml version="1.0" encoding="UTF-8" standalone="no"?>
<!DOCTYPE svg PUBLIC "-//W3C//DTD SVG 1.1//EN"
 "http://www.w3.org/Graphics/SVG/1.1/DTD/svg11.dtd">
<!-- Generated by graphviz version 2.40.1 (20161225.0304)
 -->
<!-- Title: state transitions Pages: 1 -->
<svg width="1260pt" height="184pt"
 viewBox="0.00 0.00 1259.56 184.00" xmlns="http://www.w3.org/2000/svg" xmlns:xlink="http://www.w3.org/1999/xlink">
<g id="graph0" class="graph" transform="scale(1 1) rotate(0) translate(4 180)">
<title>state transitions</title>
<polygon fill="#ffffff" stroke="transparent" points="-4,4 -4,-180 1255.556,-180 1255.556,4 -4,4"/>
<g id="clust1" class="cluster">
<title>cluster_user</title>
<path fill="none" stroke="#000000" stroke-width="2" d="M20,-8C20,-8 1231.556,-8 1231.556,-8 1237.556,-8 1243.556,-14 1243.556,-20 1243.556,-20 1243.556,-156 1243.556,-156 1243.556,-162 1237.556,-168 1231.556,-168 1231.556,-168 20,-168 20,-168 14,-168 8,-162 8,-156 8,-156 8,-20 8,-20 8,-14 14,-8 20,-8"/>
<text text-anchor="start" x="614.6098" y="-149.2" font-family="Helvetica,sans-Serif" font-size="12.00" fill="#000000">user</text>
</g>
<!-- user -->
<!-- initial -->
<g id="node2" class="node">
<title>initial</title>
<ellipse fill="#000000" stroke="#000000" stroke-width="2" cx="21.5" cy="-94" rx="5.5" ry="5.5"/>
</g>
<!-- selecting_city -->
<g id="node3" class="node">
<title>selecting_city</title>
<polygon fill="transparent" stroke="transparent" stroke-width="2" points="184.452,-112 90.452,-112 90.452,-76 184.452,-76 184.452,-112"/>
<text text-anchor="start" x="101.446" y="-90.2" font-family="Helvetica,sans-Serif" font-size="12.00" fill="#000000">selecting_city</text>
<path fill="none" stroke="#000000" stroke-width="2" d="M102.7853,-77C102.7853,-77 172.1187,-77 172.1187,-77 177.7853,-77 183.452,-82.6667 183.452,-88.3333 183.452,-88.3333 183.452,-99.6667 183.452,-99.6667 183.452,-105.3333 177.7853,-111 172.1187,-111 172.1187,-111 102.7853,-111 102.7853,-111 97.1187,-111 91.452,-105.3333 91.452,-99.6667 91.452,-99.6667 91.452,-88.3333 91.452,-88.3333 91.452,-82.6667 97.1187,-77 102.7853,-77"/>
</g>
<!-- initial&#45;&gt;selecting_city -->
<g id="edge2" class="edge">
<title>initial&#45;&gt;selecting_city</title>
<path fill="none" stroke="#000000" d="M27.0926,-94C37.0121,-94 58.6766,-94 80.2067,-94"/>
<polygon fill="#000000" stroke="#000000" points="80.3787,-97.5001 90.3787,-94 80.3787,-90.5001 80.3787,-97.5001"/>
<text text-anchor="start" x="44" y="-97" font-family="Helvetica,sans-Serif" font-size="10.00" fill="#000000">hello &#160;&#160;</text>
</g>
<!-- researching -->
<g id="node4" class="node">
<title>researching</title>
<polygon fill="transparent" stroke="transparent" stroke-width="2" points="357.462,-61 273.462,-61 273.462,-25 357.462,-25 357.462,-61"/>
<text text-anchor="start" x="284.1234" y="-39.2" font-family="Helvetica,sans-Serif" font-size="12.00" fill="#000000">researching</text>
<path fill="none" stroke="#000000" stroke-width="2" d="M285.7953,-26C285.7953,-26 345.1287,-26 345.1287,-26 350.7953,-26 356.462,-31.6667 356.462,-37.3333 356.462,-37.3333 356.462,-48.6667 356.462,-48.6667 356.462,-54.3333 350.7953,-60 345.1287,-60 345.1287,-60 285.7953,-60 285.7953,-60 280.1287,-60 274.462,-54.3333 274.462,-48.6667 274.462,-48.6667 274.462,-37.3333 274.462,-37.3333 274.462,-31.6667 280.1287,-26 285.7953,-26"/>
</g>
<!-- selecting_city&#45;&gt;researching -->
<g id="edge3" class="edge">
<title>selecting_city&#45;&gt;researching</title>
<path fill="none" stroke="#000000" d="M184.6881,-80.4668C208.9664,-73.5111 238.6073,-65.0189 263.5274,-57.8793"/>
<polygon fill="#000000" stroke="#000000" points="264.529,-61.2332 273.1783,-55.1143 262.601,-54.504 264.529,-61.2332"/>
<text text-anchor="start" x="201.452" y="-78" font-family="Helvetica,sans-Serif" font-size="10.00" fill="#000000">select_city &#160;&#160;</text>
</g>
<!-- deciding -->
<g id="node5" class="node">
<title>deciding</title>
<polygon fill="transparent" stroke="transparent" stroke-width="2" points="533.039,-56 467.039,-56 467.039,-20 533.039,-20 533.039,-56"/>
<text text-anchor="start" x="477.6992" y="-34.2" font-family="Helvetica,sans-Serif" font-size="12.00" fill="#000000">deciding</text>
<path fill="none" stroke="#000000" stroke-width="2" d="M479.3723,-21C479.3723,-21 520.7057,-21 520.7057,-21 526.3723,-21 532.039,-26.6667 532.039,-32.3333 532.039,-32.3333 532.039,-43.6667 532.039,-43.6667 532.039,-49.3333 526.3723,-55 520.7057,-55 520.7057,-55 479.3723,-55 479.3723,-55 473.7057,-55 468.039,-49.3333 468.039,-43.6667 468.039,-43.6667 468.039,-32.3333 468.039,-32.3333 468.039,-26.6667 473.7057,-21 479.3723,-21"/>
</g>
<!-- researching&#45;&gt;deciding -->
<g id="edge4" class="edge">
<title>researching&#45;&gt;deciding</title>
<path fill="none" stroke="#000000" d="M357.8077,-41.8529C387.4171,-41.0508 426.8416,-39.9828 456.6731,-39.1747"/>
<polygon fill="#000000" stroke="#000000" points="456.8914,-42.6702 466.793,-38.9006 456.7018,-35.6728 456.8914,-42.6702"/>
<text text-anchor="start" x="374.462" y="-44" font-family="Helvetica,sans-Serif" font-size="10.00" fill="#000000">check_weather &#160;&#160;</text>
</g>
<!-- ^weather -->
<g id="node9" class="node">
<title>^weather</title>
<polygon fill="transparent" stroke="#000000" stroke-width="2" points="655.104,-64.5 642.604,-52 655.104,-39.5 667.604,-52 655.104,-64.5"/>
<text text-anchor="middle" x="655.104" y="-49" font-family="Helvetica,sans-Serif" font-size="10.00" fill="#000000"> </text>
</g>
<!-- deciding&#45;&gt;^weather -->
<g id="edge5" class="edge">
<title>deciding&#45;&gt;^weather</title>
<path fill="none" stroke="#000000" d="M533.3043,-41.0034C563.5368,-43.7329 607.2738,-47.6817 633.2836,-50.03"/>
<polygon fill="#000000" stroke="#000000" points="633.2905,-53.5447 643.5647,-50.9582 633.92,-46.5731 633.2905,-53.5447"/>
<text text-anchor="middle" x="587.8215" y="-52" font-family="Helvetica,sans-Serif" font-size="10.00" fill="#000000"> </text>
</g>
<!-- traveling -->
<g id="node6" class="node">
<title>traveling</title>
<polygon fill="transparent" stroke="transparent" stroke-width="2" points="859.746,-82 792.746,-82 792.746,-46 859.746,-46 859.746,-82"/>
<text text-anchor="start" x="804.0768" y="-60.2" font-family="Helvetica,sans-Serif" font-size="12.00" fill="#000000">traveling</text>
<path fill="none" stroke="#000000" stroke-width="2" d="M805.0793,-47C805.0793,-47 847.4127,-47 847.4127,-47 853.0793,-47 858.746,-52.6667 858.746,-58.3333 858.746,-58.3333 858.746,-69.6667 858.746,-69.6667 858.746,-75.3333 853.0793,-81 847.4127,-81 847.4127,-81 805.0793,-81 805.0793,-81 799.4127,-81 793.746,-75.3333 793.746,-69.6667 793.746,-69.6667 793.746,-58.3333 793.746,-58.3333 793.746,-52.6667 799.4127,-47 805.0793,-47"/>
</g>
<!-- in_city -->
<g id="node7" class="node">
<title>in_city</title>
<polygon fill="transparent" stroke="transparent" stroke-width="2" points="983.078,-115 927.078,-115 927.078,-79 983.078,-79 983.078,-115"/>
<text text-anchor="start" x="938.077" y="-93.2" font-family="Helvetica,sans-Serif" font-size="12.00" fill="#000000">in_city</text>
<path fill="none" stroke="#000000" stroke-width="2" d="M939.4113,-80C939.4113,-80 970.7447,-80 970.7447,-80 976.4113,-80 982.078,-85.6667 982.078,-91.3333 982.078,-91.3333 982.078,-102.6667 982.078,-102.6667 982.078,-108.3333 976.4113,-114 970.7447,-114 970.7447,-114 939.4113,-114 939.4113,-114 933.7447,-114 928.078,-108.3333 928.078,-102.6667 928.078,-102.6667 928.078,-91.3333 928.078,-91.3333 928.078,-85.6667 933.7447,-80 939.4113,-80"/>
</g>
<!-- traveling&#45;&gt;in_city -->
<g id="edge8" class="edge">
<title>traveling&#45;&gt;in_city</title>
<path fill="none" stroke="#000000" d="M859.7588,-72.5842C877.3725,-77.0959 899.0261,-82.6424 917.2412,-87.3082"/>
<polygon fill="#000000" stroke="#000000" points="916.4037,-90.7066 926.9595,-89.7975 918.1407,-83.9255 916.4037,-90.7066"/>
<text text-anchor="start" x="876.746" y="-88" font-family="Helvetica,sans-Serif" font-size="10.00" fill="#000000">arrive &#160;&#160;</text>
</g>
<!-- in_city&#45;&gt;selecting_city -->
<g id="edge10" class="edge">
<title>in_city&#45;&gt;selecting_city</title>
<path fill="none" stroke="#000000" d="M926.8884,-110.8904C916.6051,-114.7957 904.7217,-118 893.412,-118 634.104,-118 634.104,-118 634.104,-118 514.8295,-118 485.2365,-129 365.962,-129 228.957,-129 228.957,-129 228.957,-129 211.3503,-129 193.0209,-123.2773 177.432,-116.46"/>
<polygon fill="#000000" stroke="#000000" points="178.6532,-113.1677 168.1108,-112.1151 175.6958,-119.5123 178.6532,-113.1677"/>
<text text-anchor="start" x="550.039" y="-123" font-family="Helvetica,sans-Serif" font-size="10.00" fill="#000000">select_city(0.7) &#160;&#160;</text>
</g>
<!-- sleeping -->
<g id="node8" class="node">
<title>sleeping</title>
<polygon fill="transparent" stroke="transparent" stroke-width="2" points="1179.777,-115 1113.777,-115 1113.777,-79 1179.777,-79 1179.777,-115"/>
<text text-anchor="start" x="1124.4372" y="-93.2" font-family="Helvetica,sans-Serif" font-size="12.00" fill="#000000">sleeping</text>
<path fill="none" stroke="#000000" stroke-width="2" d="M1126.1103,-80C1126.1103,-80 1167.4437,-80 1167.4437,-80 1173.1103,-80 1178.777,-85.6667 1178.777,-91.3333 1178.777,-91.3333 1178.777,-102.6667 1178.777,-102.6667 1178.777,-108.3333 1173.1103,-114 1167.4437,-114 1167.4437,-114 1126.1103,-114 1126.1103,-114 1120.4437,-114 1114.777,-108.3333 1114.777,-102.6667 1114.777,-102.6667 1114.777,-91.3333 1114.777,-91.3333 1114.777,-85.6667 1120.4437,-80 1126.1103,-80"/>
</g>
<!-- in_city&#45;&gt;sleeping -->
<g id="edge9" class="edge">
<title>in_city&#45;&gt;sleeping</title>
<path fill="none" stroke="#000000" d="M983.3638,-97C1014.9295,-97 1066.3863,-97 1103.1238,-97"/>
<polygon fill="#000000" stroke="#000000" points="1103.5395,-100.5001 1113.5395,-97 1103.5395,-93.5001 1103.5395,-100.5001"/>
<text text-anchor="start" x="1000.078" y="-100" font-family="Helvetica,sans-Serif" font-size="10.00" fill="#000000">going_to_sleep(0.3) &#160;&#160;</text>
</g>
<!-- final -->
<g id="node10" class="node">
<title>final</title>
<ellipse fill="#000000" stroke="#000000" stroke-width="2" cx="1226.056" cy="-97" rx="5.5" ry="5.5"/>
<ellipse fill="none" stroke="#000000" stroke-width="2" cx="1226.056" cy="-97" rx="9.5" ry="9.5"/>
</g>
<!-- sleeping&#45;&gt;final -->
<g id="edge11" class="edge">
<title>sleeping&#45;&gt;final</title>
<path fill="none" stroke="#000000" d="M1179.9391,-97C1188.937,-97 1198.3927,-97 1206.3833,-97"/>
<polygon fill="#000000" stroke="#000000" points="1206.503,-100.5001 1216.503,-97 1206.5029,-93.5001 1206.503,-100.5001"/>
<text text-anchor="middle" x="1198.1665" y="-100" font-family="Helvetica,sans-Serif" font-size="10.00" fill="#000000"> </text>
</g>
<!-- ^weather&#45;&gt;selecting_city -->
<g id="edge7" class="edge">
<title>^weather&#45;&gt;selecting_city</title>
<path fill="none" stroke="#000000" d="M647.1268,-56.6898C641.3484,-59.858 633.2418,-63.8428 625.604,-66 513.908,-97.5467 482.0275,-94 365.962,-94 228.957,-94 228.957,-94 228.957,-94 217.8887,-94 206.0674,-94 194.7227,-94"/>
<polygon fill="#000000" stroke="#000000" points="194.4734,-90.5001 184.4734,-94 194.4733,-97.5001 194.4734,-90.5001"/>
<text text-anchor="start" x="376.399" y="-97" font-family="Helvetica,sans-Serif" font-size="10.00" fill="#000000">[no] not_going &#160;&#160;</text>
</g>
<!-- ^weather&#45;&gt;traveling -->
<g id="edge6" class="edge">
<title>^weather&#45;&gt;traveling</title>
<path fill="none" stroke="#000000" d="M666.8673,-52.8248C690.2682,-54.4656 743.7212,-58.2136 782.2794,-60.9172"/>
<polygon fill="#000000" stroke="#000000" points="782.5021,-64.4413 792.7225,-61.6494 782.9918,-57.4585 782.5021,-64.4413"/>
<text text-anchor="start" x="684.604" y="-63" font-family="Helvetica,sans-Serif" font-size="10.00" fill="#000000">[yes] going_to_city &#160;&#160;</text>
</g>
<!-- ^weather&#45;&gt;^weather -->
<g id="edge1" class="edge">
<title>^weather&#45;&gt;^weather</title>
<path fill="none" stroke="transparent" d="M652.351,-61.889C650.3973,-73.2916 651.3149,-86.5 655.104,-86.5 657.7978,-86.5 659.0403,-79.824 658.8315,-71.8672"/>
<polygon fill="transparent" stroke="transparent" points="662.3125,-71.5014 657.857,-61.889 655.3456,-72.1818 662.3125,-71.5014"/>
<text text-anchor="start" x="615.647" y="-89.5" font-family="Helvetica,sans-Serif" font-size="10.00" fill="#000000">Like the weather?</text>
</g>
</g>
</svg>
